<svg id="Layer_1" data-name="Layer 1" xmlns="http://www.w3.org/2000/svg" viewBox="0 0 562.14 384"><defs><style>.cls-1{fill:#ffb71c;}</style></defs><path class="cls-1" d="M386.54,111.49l15.1,249-11-.27a186.14,186.14,0,0,0-102.66,28c-31-19.21-66.42-28-102.66-28-45.56,0-82.07,10.7-123.51,27.72L93.12,129.6a247.54,247.54,0,0,1,92.22-18.11c41.18,0,73.84,13.17,102.66,42.54C315.72,125.76,347,112.31,386.54,111.49ZM569.07,448c-25.53,0-47.48-5.21-70.54-15.64-34.31-15.65-70-25-107.87-25-39,0-74.94,12.9-102.66,40.62-27.72-27.72-63.68-40.62-102.66-40.62-37.88,0-73.56,9.33-107.87,25C55.24,442.24,32.73,448,8.3,448H6.93L49.47,98.86C88.73,76.63,136.49,64,181.77,64,218.83,64,257,71.68,288,93.1,319,71.68,357.17,64,394.23,64c45.28,0,93,12.63,132.3,34.86ZM525.7,403.26,491.67,123c-30.75-14-67.25-21.41-101-21.41-38.43,0-74.39,12.08-102.66,38.7-28.27-26.62-64.23-38.7-102.66-38.7-33.76,0-70.26,7.41-101,21.41l-34,280.25c47.21-19.49,82.89-33.49,135-33.49,37.61,0,70.82,9.61,102.66,29.65,31.84-20,65.05-29.65,102.66-29.65,52.15,0,87.83,14,135,33.49Z" transform="translate(-6.93 -64)"/></svg>